nColumns=19
nRows=59
DataType=double
version=3
OpenSimVersion=4.1
endheader
time	ground_force_1_vx	ground_force_1_vy	ground_force_1_vz	ground_force_1_px	ground_force_1_py	ground_force_1_pz	ground_force_1_mx	ground_force_1_my	ground_force_1_mz	ground_force_2_vx	ground_force_2_vy	ground_force_2_vz	ground_force_2_px	ground_force_2_py	ground_force_2_pz	ground_force_2_mx	ground_force_2_my	ground_force_2_mz
2.75833	-14.1115	33.2212	-15.7459	1.37773	0	-0.220659	0	-1.18212	0	0	0	0	-0.00230603	0	-4.70408e-05	0	0	0
2.76667	-44.7598	101.794	-29.6992	1.42208	0	-0.238514	-0	2.63755	-0	0	0	0	-0.00230599	0	-4.70364e-05	0	0	0
2.775	-108.957	261.319	-48.1551	1.4384	0	-0.244465	-0	6.5179	-0	0	0	0	-0.00230595	0	-4.70319e-05	0	0	0
2.78333	-188.446	520.151	-65.6248	1.43783	0	-0.249092	-0	9.42923	-0	0	0	0	-0.00230591	0	-4.70274e-05	0	0	0
2.79167	-229.118	828.435	-72.7454	1.4197	0	-0.253834	-0	10.4667	-0	0	0	0	-0.00230587	0	-4.70229e-05	0	0	0
2.8	-224.389	1131.11	-61.7188	1.38497	0	-0.258777	-0	9.18075	-0	0	0	0	-0.00230583	0	-4.70183e-05	0	0	0
2.80833	-232.28	1382.42	-32.168	1.34846	0	-0.26342	-0	5.77199	-0	0	0	0	-0.00230579	0	-4.70137e-05	0	0	0
2.81667	-265.768	1555.32	6.40573	1.31963	0	-0.266928	-0	1.03985	-0	0	0	0	-0.00230575	0	-4.70091e-05	0	0	0
2.825	-287.688	1669.95	38.5429	1.29392	0	-0.269482	0	-3.90857	0	0	0	0	-0.00230571	0	-4.70044e-05	0	0	0
2.83333	-266.661	1760.05	53.8652	1.26284	0	-0.271692	0	-8.05514	0	0	0	0	-0.00230567	0	-4.69997e-05	0	0	0
2.84167	-202.466	1832.58	55.1027	1.22496	0	-0.273274	0	-10.7777	0	0	0	0	-0.00230563	0	-4.6995e-05	0	0	0
2.85	-125.538	1870.43	52.6722	1.1863	0	-0.273794	0	-11.9389	0	0	0	0	-0.00230559	0	-4.69902e-05	0	0	0
2.85833	-49.3329	1860.16	52.4813	1.14894	0	-0.273346	0	-11.7759	0	0	0	0	-0.00230555	0	-4.69854e-05	0	0	0
2.86667	33.8846	1798.92	52.2332	1.11084	0	-0.272924	0	-10.7103	0	0	0	0	-0.0023055	0	-4.69806e-05	0	0	0
2.875	119.349	1686.65	48.8687	1.07241	0	-0.273356	0	-9.18236	0	0	0	0	-0.00230546	0	-4.69758e-05	0	0	0
2.88333	192.598	1527.3	44.4839	1.03542	0	-0.274059	0	-7.53998	0	0	0	0	-0.00230542	0	-4.69709e-05	0	0	0
2.89167	240.557	1328.15	42.4291	1.00079	0	-0.274094	0	-5.98205	0	0	0	0	-0.00230538	0	-4.6966e-05	0	0	0
2.9	262.299	1100.51	41.389	0.966927	0	-0.273334	0	-4.56425	0	0	0	0	-0.00230533	0	-4.69611e-05	0	0	0
2.90833	257.729	858.556	37.0375	0.933086	0	-0.272411	0	-3.26655	0	0	0	0	-0.00230529	0	-4.69561e-05	0	0	0
2.91667	226.113	621.171	28.1256	0.901063	0	-0.271936	0	-2.0802	0	0	0	0	-0.00230525	0	-4.69511e-05	0	0	0
2.925	178.359	411.795	17.9557	0.872137	0	-0.271251	0	-1.05407	0	0	0	0	-0.0023052	0	-4.69461e-05	0	0	0
2.93333	127.537	247.198	10.1217	0.849397	0	-0.268138	0	-0.277962	0	0	0	0	-0.00230516	0	-4.69411e-05	0	0	0
2.94167	82.7782	133.36	5.19694	0.837159	0	-0.259032	-0	0.167909	-0	0	0	0	-0.00230512	0	-4.69361e-05	0	0	0
2.95	47.2755	64.5252	1.98574	0.845584	0	-0.240757	-0	0.254624	-0	0	0	0	-0.00230507	0	-4.6931e-05	0	0	0
2.95833	21.6699	28.2414	0.0350094	0.91889	0	-0.207574	-0	0.019326	-0	0	0	0	-0.00230503	0	-4.69259e-05	0	0	0
2.96667	6.98881	13.1538	-0.363657	1.06416	0	-0.135652	0	-0.441902	0	0	0	0	-0.00230498	0	-4.69208e-05	0	0	0
2.975	0	0	0	-0.00230551	0	-4.69394e-05	0	0	0	0	0	0	-0.00230494	0	-4.69157e-05	0	0	0
2.98333	0	0	0	-0.00230546	0	-4.69318e-05	0	0	0	0	0	0	-0.0023049	0	-4.69106e-05	0	0	0
2.99167	0	0	0	-0.0023054	0	-4.69242e-05	0	0	0	0	0	0	-0.00230485	0	-4.69054e-05	0	0	0
3	0	0	0	-0.00230535	0	-4.69165e-05	0	0	0	0	0	0	-0.00230481	0	-4.69003e-05	0	0	0
3.00833	0	0	0	-0.00230529	0	-4.69089e-05	0	0	0	0	0	0	-0.00230476	0	-4.68951e-05	0	0	0
3.01667	0	0	0	-0.00230524	0	-4.69012e-05	0	0	0	0	0	0	-0.00230472	0	-4.68899e-05	0	0	0
3.025	0	0	0	-0.00230518	0	-4.68935e-05	0	0	0	0	0	0	-0.00230467	0	-4.68847e-05	0	0	0
3.03333	0	0	0	-0.00230513	0	-4.68857e-05	0	0	0	0	0	0	-0.00230463	0	-4.68795e-05	0	0	0
3.04167	0	0	0	-0.00230507	0	-4.6878e-05	0	0	0	0	0	0	-0.00230458	0	-4.68742e-05	0	0	0
3.05	0	0	0	-0.00230502	0	-4.68702e-05	0	0	0	0	0	0	-0.00230453	0	-4.6869e-05	0	0	0
3.05833	0	0	0	-0.00230496	0	-4.68625e-05	0	0	0	0	0	0	-0.00230449	0	-4.68637e-05	0	0	0
3.06667	0	0	0	-0.00230491	0	-4.68547e-05	0	0	0	0	0	0	-0.00230444	0	-4.68585e-05	0	0	0
3.075	0	0	0	-0.00230485	0	-4.68469e-05	0	0	0	0.140356	14.4471	0.0175841	1.31868	0	-0.201626	-0	1.14358	-0
3.08333	0	0	0	-0.00230479	0	-4.6839e-05	0	0	0	-10.8305	38.3193	0.266691	1.36346	0	-0.292027	0	-0.745312	0
3.09167	0	0	0	-0.00230474	0	-4.68312e-05	0	0	0	-39.6832	109.869	4.40722	1.3824	0	-0.324258	0	-3.11157	0
3.1	0	0	0	-0.00230468	0	-4.68234e-05	0	0	0	-96.8877	268.134	15.1748	1.39224	0	-0.328566	0	-5.4464	0
3.10833	0	0	0	-0.00230463	0	-4.68156e-05	0	0	0	-165.352	515.791	31.6547	1.39096	0	-0.323696	0	-7.06531	0
3.11667	0	0	0	-0.00230457	0	-4.68077e-05	0	0	0	-200.498	807.481	45.5123	1.37156	0	-0.316618	0	-7.29904	0
3.125	0	0	0	-0.00230451	0	-4.67999e-05	0	0	0	-197.319	1111.54	43.7651	1.33319	0	-0.310147	0	-5.75927	0
3.13333	0	0	0	-0.00230446	0	-4.6792e-05	0	0	0	-199.393	1406.51	20.4249	1.2914	0	-0.305155	0	-2.55753	0
3.14167	0	0	0	-0.0023044	0	-4.67841e-05	0	0	0	-214.669	1652.67	-15.9949	1.25753	0	-0.300964	-0	1.66653	-0
3.15	0	0	0	-0.00230434	0	-4.67763e-05	0	0	0	-213.732	1833.09	-49.5256	1.22737	0	-0.297311	-0	5.96103	-0
3.15833	0	0	0	-0.00230429	0	-4.67684e-05	0	0	0	-180.617	1958.31	-68.7578	1.19487	0	-0.294762	-0	9.42207	-0
3.16667	0	0	0	-0.00230423	0	-4.67606e-05	0	0	0	-124.569	2033.23	-71.7683	1.16062	0	-0.29336	-0	11.5123	-0
3.175	0	0	0	-0.00230418	0	-4.67527e-05	0	0	0	-65.6612	2052.49	-64.2712	1.12832	0	-0.292672	-0	12.1915	-0
3.18333	0	0	0	-0.00230412	0	-4.67449e-05	0	0	0	-10.0202	2015.61	-54.9921	1.09838	0	-0.292213	-0	11.8278	-0
3.19167	0	0	0	-0.00230406	0	-4.6737e-05	0	0	0	47.0653	1927.8	-50.2812	1.06856	0	-0.291592	-0	10.9644	-0
3.2	0	0	0	-0.00230401	0	-4.67292e-05	0	0	0	99.7319	1790.07	-50.9572	1.03845	0	-0.290489	-0	10.0711	-0
3.20833	0	0	0	-0.00230395	0	-4.67213e-05	0	0	0	143.412	1600.92	-53.949	1.00858	0	-0.288644	-0	9.38692	-0
3.21667	0	0	0	-0.00230389	0	-4.67135e-05	0	0	0	181.772	1364.37	-56.3913	0.977601	0	-0.286282	-0	8.89082	-0
3.225	0	0	0	-0.00230384	0	-4.67057e-05	0	0	0	216.537	1095.32	-57.0917	0.942813	0	-0.284032	-0	8.37799	-0
3.23333	0	0	0	-0.00230378	0	-4.66979e-05	0	0	0	232.736	821.282	-54.9763	0.905261	0	-0.282191	-0	7.58952	-0
3.24167	0	0	0	-0.00230373	0	-4.66901e-05	0	0	0	212.177	573.051	-48.6363	0.871703	0	-0.280523	-0	6.34538	-0
